<svg id="Layer_1" data-name="Layer 1" xmlns="http://www.w3.org/2000/svg" viewBox="0 0 391.93 227.91"><defs><style>.cls-1{fill:none;stroke:#eecc4f;stroke-miterlimit:10;}</style></defs><path class="cls-1" d="M23.52,253A100.66,100.66,0,0,0,74.46,267.4c29.06,0,46-15.35,46-37.55,0-20.57-11.75-32.32-41.46-43.75-35.92-12.73-58.12-31.34-58.12-62.36C20.91,89.46,49.32,64,92.09,64c22.53,0,38.85,5.23,48.65,10.78L132.9,98A87.62,87.62,0,0,0,91.11,87.5c-30,0-41.47,18-41.47,33,0,20.57,13.39,30.69,43.75,42.44,37.22,14.37,56.16,32.32,56.16,64.65,0,33.95-25.14,63.33-77.05,63.33-21.22,0-44.4-6.2-56.16-14Z" transform="translate(-15.76 -63.49)"/><path class="cls-1" d="M373.85,191c-1.63-30.69-3.59-67.59-3.26-95h-1c-7.51,25.79-16.65,53.22-27.76,83.58L303,286.33H281.45l-35.58-104.8c-10.45-31-19.27-59.42-25.47-85.54h-.65c-.66,27.42-2.29,64.32-4.25,97.29l-5.87,94.36h-27.1L197.87,67.58h36.24L271.66,174c9.14,27.1,16.65,51.26,22.2,74.11h1c5.55-22.2,13.39-46.36,23.18-74.11L357.2,67.58h36.24l13.71,220.06H379.4Z" transform="translate(-15.76 -63.49)"/></svg>